<svg width="17" height="11" viewBox="0 0 17 11" fill="none" xmlns="http://www.w3.org/2000/svg">
  <path d="M12.4529 0.323242C13.3753 0.323242 14.0888 0.432288 14.5935 0.65038C15.5246 1.05543 16.1468 1.79799 16.4601 2.87806C16.695 3.70892 16.8125 4.59685 16.8125 5.54194C16.8125 6.44325 16.7073 7.29628 16.4969 8.101L16.4731 8.19023C16.2469 9.04183 15.8727 9.67015 15.3506 10.0752C15.0199 10.3244 14.6566 10.4932 14.2607 10.5815L14.1947 10.5954C14.1595 10.6024 14.1242 10.6089 14.0889 10.6148L14.0138 10.6268L13.9351 10.6381C13.9217 10.6399 13.9081 10.6416 13.8944 10.6434L13.8103 10.6534C13.7816 10.6567 13.7524 10.6597 13.7225 10.6627L13.6311 10.6713L13.5361 10.679L13.4375 10.6859L13.3353 10.6921C13.3179 10.6931 13.3004 10.694 13.2827 10.6949L13.1751 10.7C13.1568 10.7007 13.1384 10.7015 13.1199 10.7022L13.0068 10.7061L12.89 10.7092C12.8703 10.7096 12.8504 10.71 12.8303 10.7104L12.7081 10.7124L12.5823 10.7135L12.4529 10.7139H8.95815V0.323242H12.4529ZM0.1875 0.323242H4.37199L4.6432 0.328697L4.84352 0.333893L4.98699 0.338438L5.11549 0.343355L5.22907 0.348625L5.3277 0.354266L5.39189 0.358737L5.44764 0.363413L5.48017 0.36666L5.50893 0.369981C5.67488 0.390763 5.85653 0.442679 6.05388 0.525767C6.52031 0.723077 6.88808 1.08656 7.15718 1.61623C7.42628 2.10434 7.56082 2.62881 7.56082 3.18963C7.56082 4.15547 7.16165 4.9084 6.36334 5.44846C7.16165 6.05082 7.56082 6.88684 7.56082 7.95653C7.56082 8.92583 7.24914 9.64956 6.62575 10.1277L6.59206 10.1531C6.30502 10.3711 5.99332 10.5191 5.65694 10.597C5.57539 10.6159 5.48397 10.6325 5.38266 10.6468L5.30481 10.6571C5.26497 10.662 5.22372 10.6667 5.1811 10.671L5.09401 10.6791L5.00318 10.6864L4.90867 10.6929C4.89262 10.6939 4.87638 10.6948 4.86002 10.6957L4.75995 10.7009L4.65616 10.7052L4.54867 10.7086C4.53045 10.7091 4.51206 10.7096 4.49354 10.71L4.38049 10.7121L4.26372 10.7134L4.14327 10.7139H0.1875V8.87566H4.03561L4.08187 8.87542C4.58581 8.87039 4.92919 8.78218 5.11203 8.61083C5.34524 8.39274 5.46186 8.07078 5.46186 7.64498C5.46186 7.12571 5.31384 6.7674 5.01784 6.57009C4.83575 6.44961 4.52373 6.38736 4.08179 6.38335L4.03561 6.38315H1.03517V4.54494H4.03561L4.08102 4.54475C4.62046 4.54037 4.97311 4.45736 5.13893 4.29567C5.34524 4.09834 5.44838 3.79199 5.44838 3.37657C5.44838 2.9196 5.31384 2.58727 5.04475 2.37957C4.94607 2.29648 4.8317 2.24195 4.70163 2.21599C4.68319 2.21235 4.66466 2.20918 4.64606 2.20649L4.60378 2.2009L4.55733 2.19589L4.50672 2.19148L4.45194 2.18764L4.39298 2.18441L4.32985 2.18175L4.26255 2.1797L4.19108 2.17821L4.07604 2.17712L0.1875 2.17704V0.323242ZM12.4529 2.17704H10.7577V8.86007H12.4529C13.2622 8.86007 13.8234 8.64718 14.1367 8.22136C14.3281 7.95134 14.4826 7.57228 14.6001 7.08415C14.7175 6.59605 14.7763 6.07678 14.7763 5.52635C14.7763 4.9136 14.7067 4.35278 14.5674 3.8439C14.4282 3.33502 14.2455 2.95595 14.0192 2.70669C13.6961 2.36162 13.1901 2.18515 12.5013 2.17732L12.4529 2.17704Z" fill="white"/>
</svg>
