<svg width="15" height="15" viewBox="0 0 15 15" fill="none" xmlns="http://www.w3.org/2000/svg">
  <path d="M13.4341 0.0567824L6.29792 2.04203C5.43276 2.26643 4.73203 3.08565 4.73203 3.87266V10.7163C4.73203 10.7163 4.21509 10.3996 3.06298 10.5478C1.37135 10.7668 0 11.9468 0 13.1847C0 14.4227 1.37135 15.1807 3.06298 14.9628C4.75568 14.7459 5.99592 13.6013 5.99592 12.3623V6.5193C5.99592 5.97065 6.72243 5.73551 6.72243 5.73551L13.0332 3.93709C13.0332 3.93709 13.7307 3.7245 13.7307 4.3118V9.00596C13.7307 9.00596 13.087 8.66989 11.9359 8.79766C10.2443 8.98341 8.87189 10.1387 8.87189 11.3767C8.87189 12.6146 10.2432 13.3984 11.9359 13.2116C13.6286 13.0248 15 11.8706 15 10.6315V1.07464C14.9989 0.288699 14.2982 -0.166544 13.4341 0.0567824Z" fill="white"/>
</svg>
