<svg width="16" height="16" viewBox="0 0 17 16" fill="none" xmlns="http://www.w3.org/2000/svg">
  <path d="M7.96892 3.70559L8.33845 4.06487C8.41558 4.1359 8.47726 4.22118 8.51985 4.31569C8.56245 4.4102 8.5851 4.51202 8.58647 4.61515C8.58784 4.71828 8.5679 4.82064 8.52783 4.91618C8.48776 5.01172 8.42837 5.09852 8.35316 5.17145C8.27794 5.24438 8.18843 5.30197 8.0899 5.34082C7.99137 5.37968 7.88582 5.39901 7.77946 5.39768C7.6731 5.39636 7.56809 5.37439 7.47063 5.33309C7.37316 5.29178 7.28521 5.23198 7.21196 5.15719L5.48885 3.48637C5.33983 3.34152 5.25615 3.14528 5.25615 2.94069C5.25615 2.7361 5.33983 2.53986 5.48885 2.39501L7.2209 0.715496C7.37154 0.576682 7.57214 0.500427 7.77994 0.502992C7.98774 0.505558 8.18628 0.58674 8.33322 0.729228C8.48017 0.871716 8.5639 1.06423 8.56655 1.26573C8.56919 1.46722 8.49056 1.66174 8.3474 1.80782L7.99283 2.15164C12.7637 2.67508 16.4689 6.60008 16.4689 11.3644C16.4694 11.4662 16.4491 11.567 16.4093 11.6612C16.3694 11.7553 16.3108 11.8409 16.2368 11.913C16.1628 11.9851 16.0748 12.0424 15.9778 12.0814C15.8809 12.1205 15.777 12.1406 15.6721 12.1406C15.5671 12.1406 15.4632 12.1205 15.3663 12.0814C15.2694 12.0424 15.1814 11.9851 15.1074 11.913C15.0333 11.8409 14.9747 11.7553 14.9349 11.6612C14.895 11.567 14.8748 11.4662 14.8753 11.3644C14.8752 9.49345 14.1751 7.68606 12.9051 6.27761C11.635 4.86916 9.88112 3.9553 7.96891 3.70559H7.96892ZM2.92314 6.72854H9.29761C9.61153 6.72854 9.92237 6.7885 10.2124 6.90499C10.5024 7.02147 10.7659 7.19221 10.9879 7.40745C11.2099 7.62269 11.386 7.87822 11.5061 8.15945C11.6262 8.44067 11.688 8.74209 11.688 9.04648V13.6823C11.688 14.2971 11.4362 14.8866 10.9879 15.3213C10.5396 15.756 9.93159 16.0002 9.29761 16.0002H2.92312C2.28914 16.0002 1.68114 15.756 1.23285 15.3213C0.78456 14.8866 0.532715 14.2971 0.532715 13.6823V9.04648C0.532713 8.74209 0.594541 8.44067 0.71467 8.15945C0.834799 7.87822 1.01088 7.62269 1.23285 7.40745C1.45482 7.19221 1.71834 7.02147 2.00836 6.90499C2.29838 6.7885 2.60922 6.72854 2.92314 6.72854ZM2.92314 8.27384C2.8185 8.27384 2.71488 8.29382 2.61821 8.33265C2.52154 8.37148 2.4337 8.42839 2.35971 8.50014C2.28571 8.57188 2.22702 8.65706 2.18698 8.7508C2.14693 8.84454 2.12632 8.94501 2.12632 9.04648V13.6823C2.12632 13.7838 2.14693 13.8843 2.18698 13.978C2.22702 14.0717 2.28571 14.1569 2.35971 14.2287C2.4337 14.3004 2.52154 14.3573 2.61821 14.3962C2.71488 14.435 2.8185 14.455 2.92314 14.455H9.29761C9.40225 14.455 9.50586 14.435 9.60254 14.3962C9.69921 14.3573 9.78705 14.3004 9.86104 14.2287C9.93503 14.1569 9.99373 14.0717 10.0338 13.978C10.0738 13.8843 10.0944 13.7838 10.0944 13.6823V9.04648C10.0944 8.84156 10.0105 8.64504 9.86104 8.50014C9.71161 8.35524 9.50894 8.27384 9.29761 8.27384H2.92312H2.92314Z" fill="white"/>
</svg>
