<svg width="16" height="12" viewBox="0 0 17 12" fill="none" xmlns="http://www.w3.org/2000/svg">
  <path d="M11.8573 4.17188C11.8573 4.22396 11.8037 4.3151 11.6963 4.44531C11.589 4.57552 11.4741 4.72917 11.3514 4.90625C11.2288 5.08333 11.1138 5.27604 11.0065 5.48438C10.8992 5.69271 10.8455 5.90625 10.8455 6.125C10.8455 6.34375 10.8992 6.55469 11.0065 6.75781C11.1138 6.96094 11.2288 7.14583 11.3514 7.3125C11.4741 7.47917 11.589 7.61719 11.6963 7.72656C11.8037 7.83594 11.8573 7.90625 11.8573 7.9375V9.57812C11.8573 9.75521 11.7934 9.95573 11.6657 10.1797C11.5379 10.4036 11.3795 10.6146 11.1904 10.8125C11.0014 11.0104 10.7919 11.1745 10.5619 11.3047C10.332 11.4349 10.1148 11.5 9.91038 11.5H2.29127C2.01533 11.5 1.76238 11.4505 1.53243 11.3516C1.30248 11.2526 1.10063 11.1146 0.926887 10.9375C0.753145 10.7604 0.617728 10.5521 0.520637 10.3125C0.423546 10.0729 0.375 9.8125 0.375 9.53125V2.79687C0.375 2.58854 0.420991 2.3724 0.512972 2.14844C0.604953 1.92448 0.73526 1.71875 0.903892 1.53125C1.07252 1.34375 1.27182 1.1875 1.50177 1.0625C1.73172 0.9375 1.98467 0.875 2.26061 0.875H9.87972C10.1557 0.875 10.4137 0.924479 10.6539 1.02344C10.8941 1.1224 11.1036 1.25781 11.2824 1.42969C11.4613 1.60156 11.6018 1.80729 11.704 2.04688C11.8062 2.28646 11.8573 2.54167 11.8573 2.8125V4.17188ZM16.625 2.70313V9.84375C16.625 10.0729 16.5662 10.276 16.4487 10.4531C16.3312 10.6302 16.1549 10.7188 15.9198 10.7188C15.8381 10.7188 15.7333 10.6875 15.6055 10.625C15.4778 10.5625 15.35 10.4896 15.2223 10.4062C15.0945 10.3229 14.9745 10.2396 14.862 10.1562C14.7496 10.0729 14.6678 10.0052 14.6167 9.95312C14.4839 9.83854 14.282 9.64062 14.0112 9.35938C13.7404 9.07812 13.467 8.76042 13.191 8.40625C12.9151 8.05208 12.6724 7.6875 12.4629 7.3125C12.2533 6.9375 12.1486 6.59375 12.1486 6.28125C12.1486 5.96875 12.261 5.61198 12.4859 5.21094C12.7107 4.8099 12.9815 4.41667 13.2983 4.03125C13.6152 3.64583 13.9473 3.28906 14.2948 2.96094C14.6423 2.63281 14.9336 2.38542 15.1686 2.21875C15.2606 2.15625 15.3858 2.08073 15.5442 1.99219C15.7026 1.90365 15.8432 1.85937 15.9658 1.85937C16.2417 1.85937 16.4206 1.9375 16.5024 2.09375C16.5841 2.25 16.625 2.44271 16.625 2.67188V2.70313Z" fill="white"/>
</svg>
